<svg width="600" height="600" viewBox="0 0 600 600" fill="none" xmlns="http://www.w3.org/2000/svg">
<g clip-path="url(#clip0_6718_114617)">
<path d="M300 600.014C465.684 600.014 600 465.698 600 300.014C600 134.328 465.684 0.0136719 300 0.0136719C134.315 0.0136719 0 134.328 0 300.014C0 465.698 134.315 600.014 300 600.014Z" fill="url(#paint0_radial_6718_114617)"/>
<path fill-rule="evenodd" clip-rule="evenodd" d="M436.235 158H401.712L363.111 239.509H237.123L198.663 158H163.77V239.509H107V280.139H163.77V330.93H107.008V371.562H163.77V441.817H202.375V371.562H257.647L290.722 441.817H309.653L342.589 371.562H397.627V441.817H436.235V371.562H493V330.93H436.235V280.139H492.992V239.509H436.235V158ZM397.627 330.93V280.139H385.448L361.637 330.93H397.627ZM319.816 330.93L343.869 280.139H256.295L280.26 330.93H319.816ZM299.433 371.562L300.002 372.768L300.573 371.562H299.433ZM238.517 330.93L214.606 280.139H202.375V330.93H238.517Z" fill="white"/>
</g>
<defs>
<radialGradient id="paint0_radial_6718_114617" cx="0" cy="0" r="1" gradientUnits="userSpaceOnUse" gradientTransform="translate(196 143.514) rotate(54.1676) scale(497.082 497.082)">
<stop offset="0.160391" stop-color="#FE858B"/>
<stop offset="1" stop-color="#E82B35"/>
</radialGradient>
<clipPath id="clip0_6718_114617">
<rect width="600" height="600" fill="white"/>
</clipPath>
</defs>
</svg>
